<svg xmlns="http://www.w3.org/2000/svg" width="104" height="42" fill="none">
  <path fill="#FFA000" d="m56.525 15.448-4.003 3.725-3.715-7.494 1.922-4.31c.5-.875 1.28-.865 1.768 0l4.028 8.079Z"/>
  <path fill="#F57F17" d="m48.808 11.679 3.715 7.493-14.963 13.92 11.248-21.413Z"/>
  <path fill="#FFCA28" d="M60.906 9.754c.715-.688 1.455-.453 1.643.521l3.895 22.631-12.91 7.75c-.45.25-1.65.358-1.65.358s-1.092-.13-1.508-.375L37.56 33.09 60.906 9.754Z"/>
  <path fill="#FFA000" d="M48.809 11.679 37.563 33.09 42.57 1.798c.185-.975.74-1.07 1.235-.21l5.003 10.09Z"/>
</svg>